<svg width="16" height="22" viewBox="0 0 16 22" fill="none" xmlns="http://www.w3.org/2000/svg">
    <path d="M7.99998 21.7359C6.55649 20.4792 5.21849 19.1015 3.99999 17.6172C2.17142 15.3881 1.00445e-06 12.0685 1.00445e-06 8.90507C-0.00079202 7.28951 0.468009 5.71001 1.34708 4.36649C2.22614 3.02296 3.47596 1.97579 4.93835 1.35751C6.40074 0.739221 8.00998 0.577615 9.5624 0.893139C11.1148 1.20866 12.5406 1.98713 13.6594 3.13003C14.4043 3.88688 14.9946 4.787 15.3964 5.77828C15.7982 6.76957 16.0033 7.83233 16 8.90507C16 12.0685 13.8285 15.3881 12 17.6172C10.7815 19.1015 9.44347 20.4792 7.99998 21.7359ZM7.99998 5.40575C7.09067 5.40575 6.2186 5.77443 5.57562 6.43068C4.93264 7.08693 4.57142 7.97699 4.57142 8.90507C4.57142 9.83315 4.93264 10.7232 5.57562 11.3795C6.2186 12.0357 7.09067 12.4044 7.99998 12.4044C8.90929 12.4044 9.78136 12.0357 10.4243 11.3795C11.0673 10.7232 11.4285 9.83315 11.4285 8.90507C11.4285 7.97699 11.0673 7.08693 10.4243 6.43068C9.78136 5.77443 8.90929 5.40575 7.99998 5.40575Z" fill="#65a9aad9"/>
</svg>
