<svg width="31" height="32" viewBox="0 0 31 32" fill="none" xmlns="http://www.w3.org/2000/svg">
    <path d="M19.9855 10.1262C19.9855 10.0239 19.9449 9.92577 19.8726 9.85343C19.8002 9.7811 19.7021 9.74046 19.5998 9.74046H17.6713C16.7002 9.69209 15.7494 10.03 15.0267 10.6805C14.304 11.3309 13.8681 12.241 13.8142 13.2118V15.2946H11.8857C11.7834 15.2946 11.6853 15.3353 11.613 15.4076C11.5406 15.4799 11.5 15.578 11.5 15.6803V17.686C11.5 17.7883 11.5406 17.8864 11.613 17.9587C11.6853 18.0311 11.7834 18.0717 11.8857 18.0717H13.8142V23.2402C13.8142 23.3425 13.8549 23.4406 13.9272 23.5129C13.9995 23.5852 14.0976 23.6259 14.1999 23.6259H16.5142C16.6165 23.6259 16.7146 23.5852 16.7869 23.5129C16.8592 23.4406 16.8999 23.3425 16.8999 23.2402V18.0717H18.921C19.0068 18.0729 19.0905 18.0455 19.159 17.9939C19.2274 17.9422 19.2767 17.8691 19.299 17.7863L19.8544 15.7806C19.8697 15.7236 19.8718 15.6639 19.8604 15.606C19.849 15.5481 19.8245 15.4935 19.7888 15.4466C19.753 15.3996 19.7069 15.3615 19.6541 15.3352C19.6013 15.3088 19.5431 15.295 19.4841 15.2946H16.8999V13.2118C16.9191 13.0209 17.0087 12.8439 17.1514 12.7156C17.294 12.5872 17.4794 12.5166 17.6713 12.5175H19.5998C19.7021 12.5175 19.8002 12.4769 19.8726 12.4046C19.9449 12.3322 19.9855 12.2341 19.9855 12.1318V10.1262Z" fill="#65a9aad9"/>
    <path d="M29.5 16.2359C29.5 24.2752 23.2013 30.7359 15.5 30.7359C7.79867 30.7359 1.5 24.2752 1.5 16.2359C1.5 8.19661 7.79867 1.7359 15.5 1.7359C23.2013 1.7359 29.5 8.19661 29.5 16.2359Z" stroke="#65a9aad9" stroke-width="2"/>
</svg>
