<svg width="31" height="32" viewBox="0 0 31 32" fill="none" xmlns="http://www.w3.org/2000/svg">
    <path fill-rule="evenodd" clip-rule="evenodd" d="M12.6141 9.7749C13.3605 9.74299 13.5985 9.7359 15.5 9.7359C17.4015 9.7359 17.6395 9.74358 18.3853 9.7749C19.1311 9.80622 19.6402 9.91672 20.0856 10.0769C20.5521 10.2405 20.9753 10.4964 21.3253 10.8273C21.6816 11.1517 21.9565 11.5441 22.1322 11.9778C22.3053 12.3914 22.4236 12.8642 22.458 13.5555C22.4924 14.2499 22.5 14.4709 22.5 16.2359C22.5 18.0015 22.4917 18.2225 22.458 18.9157C22.4243 19.607 22.3053 20.0798 22.1322 20.4934C21.9565 20.9272 21.6812 21.3202 21.3253 21.6451C20.9753 21.976 20.5521 22.2313 20.0856 22.3944C19.6402 22.5551 19.1311 22.665 18.3865 22.6969C17.6395 22.7288 17.4015 22.7359 15.5 22.7359C13.5985 22.7359 13.3605 22.7282 12.6141 22.6969C11.8695 22.6656 11.3605 22.5551 10.915 22.3944C10.4479 22.2312 10.0246 21.9756 9.67473 21.6451C9.31861 21.3205 9.04302 20.9277 8.86718 20.494C8.69473 20.0804 8.57636 19.6076 8.542 18.9163C8.50764 18.2219 8.5 18.0009 8.5 16.2359C8.5 14.4703 8.50827 14.2493 8.542 13.5567C8.57573 12.8642 8.69473 12.3914 8.86718 11.9778C9.04328 11.5441 9.31908 11.1513 9.67536 10.8267C10.0248 10.4961 10.4476 10.2402 10.9144 10.0769C11.3598 9.91672 11.8695 9.80681 12.6141 9.7749ZM18.3286 10.9449C17.5905 10.9136 17.369 10.9071 15.5 10.9071C13.631 10.9071 13.4095 10.9136 12.6714 10.9449C11.9885 10.9739 11.6182 11.0796 11.3713 11.1689C11.0448 11.287 10.8113 11.4271 10.5663 11.6546C10.334 11.8644 10.1553 12.1198 10.0432 12.4021C9.94709 12.6314 9.83318 12.9753 9.802 13.6093C9.76827 14.2948 9.76127 14.5004 9.76127 16.2359C9.76127 17.9714 9.76827 18.177 9.802 18.8625C9.83318 19.4965 9.94709 19.8404 10.0432 20.0697C10.1552 20.3516 10.334 20.6074 10.5663 20.8172C10.7922 21.0329 11.0677 21.1989 11.3713 21.3029C11.6182 21.3922 11.9885 21.4979 12.6714 21.5269C13.4095 21.5582 13.6304 21.5647 15.5 21.5647C17.3696 21.5647 17.5905 21.5582 18.3286 21.5269C19.0115 21.4979 19.3818 21.3922 19.6287 21.3029C19.9552 21.1848 20.1887 21.0447 20.4337 20.8172C20.666 20.6074 20.8448 20.3516 20.9568 20.0697C21.0529 19.8404 21.1668 19.4965 21.198 18.8625C21.2317 18.177 21.2387 17.9714 21.2387 16.2359C21.2387 14.5004 21.2317 14.2948 21.198 13.6093C21.1668 12.9753 21.0529 12.6314 20.9568 12.4021C20.8295 12.0989 20.6787 11.8821 20.4337 11.6546C20.2078 11.4389 19.9327 11.273 19.6287 11.1689C19.3818 11.0796 19.0115 10.9739 18.3286 10.9449ZM14.6059 18.2397C15.1052 18.4327 15.6612 18.4587 16.179 18.3134C16.6967 18.168 17.144 17.8603 17.4445 17.4427C17.745 17.0251 17.88 16.5236 17.8266 16.0238C17.7731 15.5241 17.5345 15.057 17.1514 14.7025C16.9072 14.4759 16.6119 14.3023 16.2868 14.1944C15.9617 14.0865 15.6148 14.0468 15.2712 14.0783C14.9276 14.1097 14.5958 14.2116 14.2997 14.3764C14.0036 14.5412 13.7505 14.765 13.5586 15.0315C13.3668 15.2981 13.241 15.6008 13.1903 15.918C13.1396 16.2351 13.1653 16.5587 13.2654 16.8655C13.3656 17.1723 13.5378 17.4547 13.7695 17.6923C14.0013 17.9299 14.287 18.1169 14.6059 18.2397ZM12.9558 13.8734C13.2899 13.5632 13.6866 13.3171 14.1231 13.1492C14.5596 12.9813 15.0275 12.8949 15.5 12.8949C15.9725 12.8949 16.4404 12.9813 16.8769 13.1492C17.3134 13.3171 17.7101 13.5632 18.0442 13.8734C18.3783 14.1837 18.6433 14.552 18.8241 14.9573C19.005 15.3627 19.098 15.7972 19.098 16.2359C19.098 16.6746 19.005 17.1091 18.8241 17.5145C18.6433 17.9198 18.3783 18.2881 18.0442 18.5984C17.3694 19.2249 16.4543 19.5769 15.5 19.5769C14.5457 19.5769 13.6306 19.2249 12.9558 18.5984C12.2811 17.9718 11.902 17.122 11.902 16.2359C11.902 15.3498 12.2811 14.5 12.9558 13.8734ZM19.896 13.3924C19.9788 13.3199 20.0451 13.2327 20.0909 13.136C20.1368 13.0392 20.1612 12.9349 20.1629 12.8293C20.1646 12.7236 20.1434 12.6187 20.1006 12.5207C20.0578 12.4228 19.9943 12.3338 19.9138 12.2591C19.8333 12.1844 19.7375 12.1254 19.632 12.0857C19.5266 12.0459 19.4136 12.0263 19.2998 12.0278C19.186 12.0293 19.0736 12.0521 18.9695 12.0946C18.8653 12.1372 18.7714 12.1987 18.6933 12.2756C18.5414 12.4251 18.4582 12.6237 18.4614 12.8293C18.4647 13.0348 18.554 13.2311 18.7106 13.3764C18.8671 13.5217 19.0784 13.6047 19.2998 13.6077C19.5211 13.6107 19.735 13.5335 19.896 13.3924Z" fill="#65a9aad9"/>
    <path d="M29.5 16.2359C29.5 24.2752 23.2013 30.7359 15.5 30.7359C7.79867 30.7359 1.5 24.2752 1.5 16.2359C1.5 8.19661 7.79867 1.7359 15.5 1.7359C23.2013 1.7359 29.5 8.19661 29.5 16.2359Z" stroke="#65a9aad9" stroke-width="2"/>
</svg>
