<svg width="24" height="20" viewBox="0 0 24 20" fill="none" xmlns="http://www.w3.org/2000/svg">
    <g clip-path="url(#clip0_107_1555)">
        <path d="M0.388916 6.14457L11.6348 11.9934C11.7476 12.0521 11.8729 12.0827 12 12.0827C12.1272 12.0827 12.2524 12.0521 12.3652 11.9934L23.6111 6.14562V16.3053C23.6112 17.1816 23.2759 18.0247 22.6741 18.6616C22.0724 19.2985 21.2497 19.681 20.3748 19.7306L20.1806 19.7359H3.81947C2.94321 19.736 2.10015 19.4007 1.46323 18.7989C0.826303 18.1971 0.443804 17.3744 0.394194 16.4996L0.388916 16.3053V6.14457ZM3.81947 0.735901H20.1806C21.0568 0.735844 21.8999 1.0711 22.5368 1.67289C23.1737 2.27468 23.5562 3.09738 23.6059 3.97223L23.6111 4.16646V4.36068L12 10.3985L0.388916 4.36068V4.16646C0.388859 3.2902 0.724112 2.44714 1.3259 1.81021C1.92769 1.17329 2.7504 0.790788 3.62525 0.741179L3.81947 0.735901Z" fill="#65a9aad9"/>
    </g>
    <defs>
        <clipPath id="clip0_107_1555">
            <rect width="23.2222" height="19" fill="white" transform="translate(0.388916 0.735901)"/>
        </clipPath>
    </defs>
</svg>
