<svg width="13" height="19" viewBox="0 0 13 19" fill="none" xmlns="http://www.w3.org/2000/svg">
    <path d="M2.19444 1.13083L3.1936 0.821231C4.13054 0.531427 5.13156 1.00033 5.53271 1.91654L6.3313 3.74177C6.67859 4.53647 6.48545 5.47159 5.85401 6.05299L4.09433 7.67121C4.20297 8.63962 4.53912 9.59273 5.10185 10.5305C5.63622 11.4379 6.353 12.2321 7.20975 12.8661L9.32321 12.1821C10.1237 11.9238 10.9965 12.2217 11.4868 12.921L12.6318 14.55C13.2029 15.3636 13.0998 16.485 12.3913 17.1744L11.6326 17.9133C10.8767 18.6486 9.79679 18.9159 8.79856 18.6135C6.43994 17.9007 4.27355 15.7848 2.29565 12.2658C0.314973 8.74132 -0.384254 5.74969 0.1989 3.29446C0.444047 2.26125 1.2027 1.43774 2.19444 1.13083Z" fill="#65a9aad9"/>
</svg>
