<svg width="31" height="32" viewBox="0 0 31 32" fill="none" xmlns="http://www.w3.org/2000/svg">
    <path d="M20.4598 10.7729C19.8148 10.1247 19.0466 9.61071 18.1998 9.26098C17.3531 8.91125 16.4449 8.73276 15.5281 8.73594C11.6869 8.73594 8.55628 11.8509 8.55628 15.6729C8.55628 16.8979 8.8799 18.0879 9.48492 19.1379L8.5 22.7359L12.1935 21.7699C13.2136 22.3229 14.3603 22.6169 15.5281 22.6169C19.3693 22.6169 22.5 19.5019 22.5 15.6799C22.5 13.8249 21.7754 12.0819 20.4598 10.7729ZM15.5281 21.4409C14.4869 21.4409 13.4668 21.1609 12.5734 20.6359L12.3623 20.5099L10.1673 21.0839L10.7513 18.9559L10.6106 18.7389C10.0321 17.8198 9.72492 16.7574 9.72412 15.6729C9.72412 12.4949 12.3271 9.90494 15.5211 9.90494C17.0688 9.90494 18.5251 10.5069 19.6156 11.5989C20.1555 12.1337 20.5834 12.7698 20.8744 13.4703C21.1655 14.1709 21.3139 14.9219 21.3111 15.6799C21.3251 18.8579 18.7221 21.4409 15.5281 21.4409ZM18.708 17.1289C18.5322 17.0449 17.6739 16.6249 17.5191 16.5619C17.3573 16.5059 17.2447 16.4779 17.1251 16.6459C17.0055 16.8209 16.6749 17.2129 16.5764 17.3249C16.4779 17.4439 16.3724 17.4579 16.1965 17.3669C16.0206 17.2829 15.4578 17.0939 14.7965 16.5059C14.2759 16.0439 13.9312 15.4769 13.8256 15.3019C13.7271 15.1269 13.8116 15.0359 13.903 14.9449C13.9804 14.8679 14.0789 14.7419 14.1633 14.6439C14.2477 14.5459 14.2829 14.4689 14.3392 14.3569C14.3955 14.2379 14.3673 14.1399 14.3251 14.0559C14.2829 13.9719 13.9312 13.1179 13.7905 12.7679C13.6497 12.4319 13.502 12.4739 13.3965 12.4669H13.0588C12.9392 12.4669 12.7563 12.5089 12.5945 12.6839C12.4397 12.8589 11.9894 13.2789 11.9894 14.1329C11.9894 14.9869 12.6156 15.8129 12.7 15.9249C12.7844 16.0439 13.9312 17.7939 15.6759 18.5429C16.091 18.7249 16.4146 18.8299 16.6678 18.9069C17.0829 19.0399 17.4628 19.0189 17.7653 18.9769C18.103 18.9279 18.7995 18.5569 18.9402 18.1509C19.0879 17.7449 19.0879 17.4019 19.0387 17.3249C18.9894 17.2479 18.8839 17.2129 18.708 17.1289Z" fill="#65a9aad9"/>
    <path d="M29.5 16.2359C29.5 24.2752 23.2013 30.7359 15.5 30.7359C7.79867 30.7359 1.5 24.2752 1.5 16.2359C1.5 8.19661 7.79867 1.7359 15.5 1.7359C23.2013 1.7359 29.5 8.19661 29.5 16.2359Z" stroke="#65a9aad9" stroke-width="2"/>
</svg>
